<?xml version="1.0" encoding="UTF-8"?>
<svg version="1.1" xmlns="http://www.w3.org/2000/svg" width="500" height="500">
<path d="M0 0 C165 0 330 0 500 0 C500 165 500 330 500 500 C335 500 170 500 0 500 C0 335 0 170 0 0 Z " fill="#000000" transform="translate(0,0)"/>
<path d="M0 0 C3.5541525 2.6837478 6.0682293 5.3239586 8.0625 9.3125 C8.14592159 10.76098582 8.16982861 12.21320869 8.16015625 13.6640625 C8.15693359 14.51484375 8.15371094 15.365625 8.15039062 16.2421875 C8.13782227 17.57636719 8.13782227 17.57636719 8.125 18.9375 C8.12048828 19.8346875 8.11597656 20.731875 8.11132812 21.65625 C8.09952611 23.87502831 8.08159039 26.09377243 8.0625 28.3125 C13.6725 28.3125 19.2825 28.3125 25.0625 28.3125 C26.38601965 32.28305894 27.34436161 35.29147119 27.921875 39.28515625 C28.06520264 40.24977783 28.20853027 41.21439941 28.35620117 42.20825195 C28.50677979 43.25327881 28.6573584 44.29830566 28.8125 45.375 C29.15602248 47.6825199 29.50117778 49.9897971 29.84765625 52.296875 C30.13213623 54.19276367 30.13213623 54.19276367 30.42236328 56.12695312 C31.51160004 63.30244288 32.68092123 70.46540146 33.84460449 77.62911987 C34.24546114 80.09705583 34.64472713 82.56524581 35.04394531 85.03344727 C35.29348439 86.57049725 35.54315294 88.10752622 35.79296875 89.64453125 C35.90636093 90.34559998 36.01975311 91.0466687 36.13658142 91.76898193 C36.59427099 94.5735094 37.07334811 97.36623232 37.63574219 100.15185547 C38.30869441 103.55896484 38.12124329 106.84664569 38.0625 110.3125 C30.01967791 116.74695831 21.06652377 115.95715589 11.33984375 115.80078125 C9.62635841 115.79144168 7.91285961 115.78433098 6.19935608 115.77934265 C1.71593575 115.76036264 -2.766659 115.71134129 -7.24975586 115.65582275 C-11.83501013 115.60443453 -16.42039939 115.58178706 -21.00585938 115.55664062 C-29.98343323 115.5032123 -38.96039764 115.41801051 -47.9375 115.3125 C-48.13872364 98.91849404 -47.70656754 82.64079974 -46.71069336 66.27685547 C-46.49675823 62.75919681 -46.29346435 59.24103775 -46.09179688 55.72265625 C-45.95893385 53.45048564 -45.8254924 51.17834876 -45.69140625 48.90625 C-45.6309462 47.87181763 -45.57048615 46.83738525 -45.50819397 45.77160645 C-45.15019858 39.92467895 -44.63521321 34.12890816 -43.9375 28.3125 C-38.3275 28.3125 -32.7175 28.3125 -26.9375 28.3125 C-26.99550781 27.1059375 -27.05351562 25.899375 -27.11328125 24.65625 C-27.65346491 8.82738198 -27.65346491 8.82738198 -23.47265625 3.7265625 C-16.94153388 -2.28938228 -8.25521825 -4.3495236 0 0 Z " fill="#020202" transform="translate(254.9375,110.6875)"/>
<path d="M0 0 C3.5541525 2.6837478 6.0682293 5.3239586 8.0625 9.3125 C8.14592159 10.76098582 8.16982861 12.21320869 8.16015625 13.6640625 C8.15693359 14.51484375 8.15371094 15.365625 8.15039062 16.2421875 C8.13782227 17.57636719 8.13782227 17.57636719 8.125 18.9375 C8.12048828 19.8346875 8.11597656 20.731875 8.11132812 21.65625 C8.09952611 23.87502831 8.08159039 26.09377243 8.0625 28.3125 C13.6725 28.3125 19.2825 28.3125 25.0625 28.3125 C26.38601965 32.28305894 27.34436161 35.29147119 27.921875 39.28515625 C28.06520264 40.24977783 28.20853027 41.21439941 28.35620117 42.20825195 C28.50677979 43.25327881 28.6573584 44.29830566 28.8125 45.375 C29.15602248 47.6825199 29.50117778 49.9897971 29.84765625 52.296875 C30.13213623 54.19276367 30.13213623 54.19276367 30.42236328 56.12695312 C31.51160004 63.30244288 32.68092123 70.46540146 33.84460449 77.62911987 C34.24546114 80.09705583 34.64472713 82.56524581 35.04394531 85.03344727 C35.29348439 86.57049725 35.54315294 88.10752622 35.79296875 89.64453125 C35.90636093 90.34559998 36.01975311 91.0466687 36.13658142 91.76898193 C36.59427099 94.5735094 37.07334811 97.36623232 37.63574219 100.15185547 C38.30869441 103.55896484 38.12124329 106.84664569 38.0625 110.3125 C30.01967791 116.74695831 21.06652377 115.95715589 11.33984375 115.80078125 C9.62635841 115.79144168 7.91285961 115.78433098 6.19935608 115.77934265 C1.71593575 115.76036264 -2.766659 115.71134129 -7.24975586 115.65582275 C-11.83501013 115.60443453 -16.42039939 115.58178706 -21.00585938 115.55664062 C-29.98343323 115.5032123 -38.96039764 115.41801051 -47.9375 115.3125 C-48.13872364 98.91849404 -47.70656754 82.64079974 -46.71069336 66.27685547 C-46.49675823 62.75919681 -46.29346435 59.24103775 -46.09179688 55.72265625 C-45.95893385 53.45048564 -45.8254924 51.17834876 -45.69140625 48.90625 C-45.6309462 47.87181763 -45.57048615 46.83738525 -45.50819397 45.77160645 C-45.15019858 39.92467895 -44.63521321 34.12890816 -43.9375 28.3125 C-38.3275 28.3125 -32.7175 28.3125 -26.9375 28.3125 C-26.99550781 27.1059375 -27.05351562 25.899375 -27.11328125 24.65625 C-27.65346491 8.82738198 -27.65346491 8.82738198 -23.47265625 3.7265625 C-16.94153388 -2.28938228 -8.25521825 -4.3495236 0 0 Z M-41.9375 30.3125 C-42.46041558 40.26562794 -42.98222872 50.21881199 -43.50210571 60.17209911 C-43.74355359 64.79388701 -43.98548298 69.41564866 -44.22851562 74.03735352 C-44.46307223 78.49820978 -44.69636028 82.95913075 -44.92877197 87.42009926 C-45.01762798 89.12134475 -45.1069397 90.8225665 -45.19671631 92.52376366 C-45.32245783 94.90795227 -45.44657341 97.29222041 -45.5703125 99.67651367 C-45.60771545 100.37854416 -45.64511841 101.08057465 -45.68365479 101.80387878 C-45.86429508 105.31809472 -45.9375 108.78993438 -45.9375 112.3125 C-21.8475 112.3125 2.2425 112.3125 27.0625 112.3125 C27.0625 102.72486089 26.96588555 93.28272082 26.44140625 83.73046875 C26.37718979 82.51023514 26.31297333 81.29000153 26.24681091 80.03279114 C26.11165826 77.4808259 25.97460343 74.92896073 25.83569336 72.37719727 C25.62456205 68.49194083 25.42022339 64.60636983 25.21679688 60.72070312 C25.08373222 58.22393704 24.95028208 55.72719147 24.81640625 53.23046875 C24.7559462 52.082332 24.69548615 50.93419525 24.63319397 49.75126648 C24.27589533 43.24691966 23.76210215 36.7891942 23.0625 30.3125 C18.1125 30.3125 13.1625 30.3125 8.0625 30.3125 C8.0625 32.6225 8.0625 34.9325 8.0625 37.3125 C8.7225 37.3125 9.3825 37.3125 10.0625 37.3125 C9.7325 38.9625 9.4025 40.6125 9.0625 42.3125 C7.4125 42.6425 5.7625 42.9725 4.0625 43.3125 C3.9375 40.9375 3.9375 40.9375 4.0625 38.3125 C4.7225 37.6525 5.3825 36.9925 6.0625 36.3125 C6.0625 34.3325 6.0625 32.3525 6.0625 30.3125 C-3.8375 30.3125 -13.7375 30.3125 -23.9375 30.3125 C-23.95452833 36.49317329 -23.95452833 36.49317329 -22.9375 42.3125 C-24.5875 42.3125 -26.2375 42.3125 -27.9375 42.3125 C-27.69 41.2915625 -27.69 41.2915625 -27.4375 40.25 C-26.74173409 36.6590002 -26.74173409 36.6590002 -26.9375 30.3125 C-31.8875 30.3125 -36.8375 30.3125 -41.9375 30.3125 Z " fill="#EDEDED" transform="translate(254.9375,110.6875)"/>
<path d="M0 0 C-0.6616322 5.4915473 -2.99738233 7.32430602 -7.1015625 10.76171875 C-29.95459664 28.40968177 -55.11058594 38.41431245 -84.1875 38.375 C-84.8690918 38.37445618 -85.55068359 38.37391235 -86.25292969 38.37335205 C-97.01881579 38.33392004 -106.80458926 37.53002393 -117 34 C-117.62680664 33.78569336 -118.25361328 33.57138672 -118.89941406 33.35058594 C-134.30685085 27.96934086 -148.08838677 19.90590602 -161 10 C-161.57218262 9.58024902 -162.14436523 9.16049805 -162.73388672 8.72802734 C-164.40234375 7.44921875 -164.40234375 7.44921875 -167 5 C-167 3.68 -167 2.36 -167 1 C-162.54097601 1.50778921 -160.43151474 3.03340734 -157.125 6 C-132.74527776 26.58877347 -103.48218066 34.48546058 -72 33 C-66.86649303 32.52044355 -61.95852968 31.40058697 -57 30 C-55.17855469 29.48953125 -55.17855469 29.48953125 -53.3203125 28.96875 C-35.28212042 23.41853705 -19.50172534 14.05289486 -5.27734375 1.6875 C-3 0 -3 0 0 0 Z " fill="#F3F3F3" transform="translate(333,235)"/>
<path d="M0 0 C3.48233928 1.87055592 6.04767445 3.77037888 7.90234375 7.23828125 C8.26766737 10.49855796 8.18346202 13.71302246 8.08984375 16.98828125 C8.02796875 20.04078125 7.96609375 23.09328125 7.90234375 26.23828125 C-1.66765625 26.23828125 -11.23765625 26.23828125 -21.09765625 26.23828125 C-21.18015625 23.39203125 -21.26265625 20.54578125 -21.34765625 17.61328125 C-21.38407227 16.72817871 -21.42048828 15.84307617 -21.45800781 14.93115234 C-21.53338216 9.52972953 -20.68158868 6.52313035 -17.09765625 2.23828125 C-12.42116068 -1.88803837 -5.73767958 -2.08351493 0 0 Z " fill="#040404" transform="translate(252.09765625,112.76171875)"/>
<path d="M0 0 C3.98653215 1.91718722 6.34356974 4.94434565 8 9 C8.75720757 14.95932192 8.36688267 19.88732632 5 25 C2.52751324 27.98758816 0.40792388 28.84528309 -3.48828125 29.2734375 C-12.05563991 29.58153062 -12.05563991 29.58153062 -15.5625 26.8125 C-19.84344314 21.87295023 -20.45395939 17.85255075 -20.3203125 11.4375 C-19.7371337 6.99965157 -17.43132092 4.31467142 -14.2265625 1.37109375 C-9.91502861 -1.28390344 -4.86911636 -0.7030275 0 0 Z " fill="#F2F2F2" transform="translate(314,294)"/>
<path d="M0 0 C3.98653215 1.91718722 6.34356974 4.94434565 8 9 C8.75720757 14.95932192 8.36688267 19.88732632 5 25 C2.52751324 27.98758816 0.40792388 28.84528309 -3.48828125 29.2734375 C-12.05563991 29.58153062 -12.05563991 29.58153062 -15.5625 26.8125 C-19.84344314 21.87295023 -20.45395939 17.85255075 -20.3203125 11.4375 C-19.7371337 6.99965157 -17.43132092 4.31467142 -14.2265625 1.37109375 C-9.91502861 -1.28390344 -4.86911636 -0.7030275 0 0 Z " fill="#F2F2F2" transform="translate(156,294)"/>
<path d="M0 0 C5 1 5 1 6.39379883 2.58227539 C6.74466553 3.24735107 7.09553223 3.91242676 7.45703125 4.59765625 C7.84697266 5.31630859 8.23691406 6.03496094 8.63867188 6.77539062 C9.02603516 7.53013672 9.41339844 8.28488281 9.8125 9.0625 C10.21919922 9.82111328 10.62589844 10.57972656 11.04492188 11.36132812 C12.04535649 13.23272934 13.02474392 15.11535481 14 17 C17.30659952 12.86174061 19.61416963 8.24904501 22.0859375 3.58203125 C24 1 24 1 29 0 C29 9.57 29 19.14 29 29 C27.35 28.67 25.7 28.34 24 28 C23.67 23.05 23.34 18.1 23 13 C20.69 16.96 18.38 20.92 16 25 C12 24 12 24 10.296875 21.49609375 C8.86458333 18.6640625 7.43229167 15.83203125 6 13 C5.67 17.95 5.34 22.9 5 28 C3.35 28.33 1.7 28.66 0 29 C0 19.43 0 9.86 0 0 Z " fill="#F0F0F0" transform="translate(334,294)"/>
<path d="M0 0 C5.62556908 1.12511382 5.62556908 1.12511382 7.82421875 4.0546875 C8.29537109 4.66957031 8.76652344 5.28445313 9.25195312 5.91796875 C9.72568359 6.56378906 10.19941406 7.20960938 10.6875 7.875 C11.17283203 8.51308594 11.65816406 9.15117187 12.15820312 9.80859375 C14.1904509 12.49396391 16.1310993 15.19664894 18 18 C18.33 12.39 18.66 6.78 19 1 C20.65 0.67 22.3 0.34 24 0 C24 9.57 24 19.14 24 29 C18.375 27.875 18.375 27.875 15.66796875 24.18359375 C15.09755859 23.41982422 14.52714844 22.65605469 13.93945312 21.86914062 C13.36130859 21.06669922 12.78316406 20.26425781 12.1875 19.4375 C11.59001953 18.63119141 10.99253906 17.82488281 10.37695312 16.99414062 C8.90574975 15.00507367 7.45123539 13.00368225 6 11 C5.67 16.61 5.34 22.22 5 28 C3.35 28.33 1.7 28.66 0 29 C0 19.43 0 9.86 0 0 Z " fill="#F2F2F2" transform="translate(176,294)"/>
<path d="M0 0 C0.74886475 0.00523682 1.49772949 0.01047363 2.26928711 0.01586914 C3.07817383 0.0190918 3.88706055 0.02231445 4.72045898 0.02563477 C5.5705957 0.03401367 6.42073242 0.04239258 7.29663086 0.05102539 C8.15063477 0.05553711 9.00463867 0.06004883 9.88452148 0.06469727 C12.00108749 0.07652166 14.11761771 0.0944577 16.23413086 0.11352539 C16.23413086 1.43352539 16.23413086 2.75352539 16.23413086 4.11352539 C11.61413086 4.11352539 6.99413086 4.11352539 2.23413086 4.11352539 C2.23413086 6.75352539 2.23413086 9.39352539 2.23413086 12.11352539 C6.52413086 12.11352539 10.81413086 12.11352539 15.23413086 12.11352539 C15.56413086 13.43352539 15.89413086 14.75352539 16.23413086 16.11352539 C11.61413086 16.11352539 6.99413086 16.11352539 2.23413086 16.11352539 C2.23413086 19.08352539 2.23413086 22.05352539 2.23413086 25.11352539 C6.85413086 25.11352539 11.47413086 25.11352539 16.23413086 25.11352539 C16.23413086 26.43352539 16.23413086 27.75352539 16.23413086 29.11352539 C13.25490492 29.14036526 10.27591791 29.16028576 7.29663086 29.17602539 C6.02142578 29.18859375 6.02142578 29.18859375 4.72045898 29.20141602 C3.91157227 29.20463867 3.10268555 29.20786133 2.26928711 29.21118164 C1.52042236 29.21641846 0.77155762 29.22165527 0 29.22705078 C-1.76586914 29.11352539 -1.76586914 29.11352539 -2.76586914 28.11352539 C-2.86569972 26.12595511 -2.89667667 24.1348502 -2.89868164 22.14477539 C-2.8999707 20.9343457 -2.90125977 19.72391602 -2.90258789 18.47680664 C-2.8987207 17.20192383 -2.89485352 15.92704102 -2.89086914 14.61352539 C-2.89473633 13.33864258 -2.89860352 12.06375977 -2.90258789 10.75024414 C-2.90129883 9.53981445 -2.90000977 8.32938477 -2.89868164 7.08227539 C-2.89755371 5.96272461 -2.89642578 4.84317383 -2.89526367 3.68969727 C-2.7187185 0.17478282 -2.7187185 0.17478282 0 0 Z " fill="#FA3030" transform="translate(215.765869140625,293.886474609375)"/>
<path d="M0 0 C0.66 0 1.32 0 2 0 C2 4.62 2 9.24 2 14 C3.32 13.67 4.64 13.34 6 13 C6 13.99 6 14.98 6 16 C2.30491494 18.38105591 -1.27550471 18.27032862 -5.52246094 18.22705078 C-6.6498745 18.22748886 -6.6498745 18.22748886 -7.80006409 18.22793579 C-10.27828616 18.22654519 -12.7562056 18.21099684 -15.234375 18.1953125 C-16.95501542 18.19158141 -18.67565797 18.18873489 -20.39630127 18.18673706 C-24.92057176 18.17910818 -29.44471344 18.15946608 -33.96893311 18.1373291 C-38.58734393 18.11685464 -43.2057756 18.10773192 -47.82421875 18.09765625 C-56.88287814 18.07621947 -65.9414082 18.04104339 -75 18 C-75 12.72 -75 7.44 -75 2 C-74.34 1.67 -73.68 1.34 -73 1 C-73 5.62 -73 10.24 -73 15 C-48.91 15 -24.82 15 0 15 C0 10.05 0 5.1 0 0 Z " fill="#EEEEEE" transform="translate(282,208)"/>
<path d="M0 0 C1.13308594 -0.01675781 2.26617187 -0.03351563 3.43359375 -0.05078125 C6.78575713 0.33842124 8.1286897 1.04612629 10.5625 3.3125 C10.2325 4.3025 9.9025 5.2925 9.5625 6.3125 C8.75425781 6.18230469 7.94601562 6.05210937 7.11328125 5.91796875 C0.44299843 4.93943697 0.44299843 4.93943697 -5.6875 7.1875 C-7.96284113 11.25060915 -8.4179994 14.74500694 -7.4375 19.3125 C-6.47891226 21.68276975 -6.47891226 21.68276975 -4.4375 23.3125 C-1.00985945 23.79767403 -1.00985945 23.79767403 2.75 23.5625 C4.65845703 23.50835937 4.65845703 23.50835937 6.60546875 23.453125 C7.58128906 23.40671875 8.55710937 23.3603125 9.5625 23.3125 C9.5625 24.6325 9.5625 25.9525 9.5625 27.3125 C4.78017028 30.13688767 -0.0360269 29.82616163 -5.4375 29.3125 C-9.76208374 27.6006856 -11.3772517 25.41004118 -13.4375 21.3125 C-14.20023906 15.82215307 -14.73874928 9.46328734 -11.625 4.625 C-7.79571412 0.57689779 -5.43971935 0.01852345 0 0 Z " fill="#F2F2F2" transform="translate(273.4375,293.6875)"/>
<path d="M0 0 C2.875 1.875 2.875 1.875 5 5 C5.82163391 9.72827059 5.5933901 13.67835842 3.625 18.0625 C2 20 2 20 0 21 C-3.34919863 21.29123466 -5.35756835 21.36462337 -8.3125 19.6875 C-11.10681575 16.89318425 -11.22556762 13.90678877 -11.375 10.125 C-11.32980611 6.26092266 -11.13193582 5.19402326 -8.875 1.875 C-5.45264744 -0.35696906 -3.99977332 -0.83328611 0 0 Z " fill="#070707" transform="translate(311,298)"/>
<path d="M0 0 C2.875 1.875 2.875 1.875 5 5 C5.82163391 9.72827059 5.5933901 13.67835842 3.625 18.0625 C2 20 2 20 0 21 C-3.34919863 21.29123466 -5.35756835 21.36462337 -8.3125 19.6875 C-11.10681575 16.89318425 -11.22556762 13.90678877 -11.375 10.125 C-11.32980611 6.26092266 -11.13193582 5.19402326 -8.875 1.875 C-5.45264744 -0.35696906 -3.99977332 -0.83328611 0 0 Z " fill="#070707" transform="translate(153,298)"/>
<path d="M0 0 C0.33 0 0.66 0 1 0 C2.00239297 6.17384511 2.99866822 12.34865517 3.99072266 18.52416992 C4.32883618 20.62433145 4.66834284 22.72426919 5.00927734 24.82397461 C5.4994476 27.84430938 5.98458099 30.8654169 6.46875 33.88671875 C6.62186646 34.82335861 6.77498291 35.75999847 6.93273926 36.72502136 C7.07288452 37.60555679 7.21302979 38.48609222 7.35742188 39.39331055 C7.48177612 40.16386276 7.60613037 40.93441498 7.73425293 41.72831726 C8.02349574 44.20084837 8.16822194 46.51394655 8 49 C5.95575462 50.97610386 4.8823175 52 2 52 C1.71021896 46.84482621 1.4256368 41.68939871 1.14550781 36.53369141 C1.04987027 34.78622019 0.95290468 33.03882105 0.85449219 31.29150391 C0.26722358 20.84651232 -0.15564791 10.46516038 0 0 Z " fill="#181818" transform="translate(282,170)"/>
<path d="M0 0 C0.66 0 1.32 0 2 0 C1.34319489 21.68791824 0.23069285 43.33837278 -1 65 C-1.33 65 -1.66 65 -2 65 C-2.33 62.36 -2.66 59.72 -3 57 C-3.33 57 -3.66 57 -4 57 C-3.58802426 42.41672875 -3.02057942 27.86569749 -2 13.3125 C-1.9170166 12.09594727 -1.8340332 10.87939453 -1.74853516 9.62597656 C-1.66651855 8.50803711 -1.58450195 7.39009766 -1.5 6.23828125 C-1.4278125 5.24868408 -1.355625 4.25908691 -1.28125 3.23950195 C-1 1 -1 1 0 0 Z " fill="#E9E9E9" transform="translate(211,153)"/>
<path d="M0 0 C1.875 1.0625 1.875 1.0625 3 3 C2.66666667 9.33333333 2.66666667 9.33333333 0 12 C-3 12.25 -3 12.25 -6 12 C-8 10 -8 10 -8.3125 6.5625 C-8 3 -8 3 -6.8125 1.0625 C-4.33950907 -0.38718434 -2.82115488 -0.42317323 0 0 Z " fill="#CECECE" transform="translate(281,337)"/>
<path d="M0 0 C0 0.99 0 1.98 0 3 C-1.0725 3.4125 -2.145 3.825 -3.25 4.25 C-6.56188836 5.69518765 -8.78959418 7.05279225 -11 10 C-12.27765265 13.63543901 -12.27765265 13.63543901 -13 17 C-13.66 17 -14.32 17 -15 17 C-16.5547669 13.89046621 -16.28644437 11.43733239 -16 8 C-14.38679279 4.94642921 -12.96939098 2.76166434 -10.25 0.625 C-6.80062538 -0.33315962 -3.57255374 -0.11908512 0 0 Z " fill="#E9E9E9" transform="translate(173,226)"/>
<path d="M0 0 C9.80645161 -0.57685009 9.80645161 -0.57685009 14 3 C17.1765161 6.94326136 17.37593152 10.01890741 17 15 C16.67 15.66 16.34 16.32 16 17 C15.34 17 14.68 17 14 17 C13.7215625 15.453125 13.7215625 15.453125 13.4375 13.875 C12.09155565 9.13535311 8.98907522 6.67935739 5 4 C2.25452126 2.62949404 2.25452126 2.62949404 0 2 C0 1.34 0 0.68 0 0 Z " fill="#EBEBEB" transform="translate(326,226)"/>
<path d="M0 0 C1.65 0 3.3 0 5 0 C4.67 1.65 4.34 3.3 4 5 C5.32 5 6.64 5 8 5 C7.67 3.35 7.34 1.7 7 0 C8.65 0 10.3 0 12 0 C12 3.96 12 7.92 12 12 C10.35 12 8.7 12 7 12 C7.33 10.35 7.66 8.7 8 7 C6.68 7 5.36 7 4 7 C4.33 8.65 4.66 10.3 5 12 C3.35 12 1.7 12 0 12 C0 8.04 0 4.08 0 0 Z " fill="#D4D4D4" transform="translate(122,337)"/>
<path d="M0 0 C5 1 5 1 6.8125 3.5625 C7.204375 4.366875 7.59625 5.17125 8 6 C8 4.02 8 2.04 8 0 C9.32 0 10.64 0 12 0 C11.67 3.96 11.34 7.92 11 12 C10.01 12 9.02 12 8 12 C6.3125 9.5 6.3125 9.5 5 7 C5 8.65 5 10.3 5 12 C3.35 12 1.7 12 0 12 C0 8.04 0 4.08 0 0 Z " fill="#C8C8C8" transform="translate(346,337)"/>
<path d="M0 0 C0.66 0 1.32 0 2 0 C2.67980581 3.16398982 3.34138686 6.33153677 4 9.5 C4.19078125 10.386875 4.3815625 11.27375 4.578125 12.1875 C5.68788915 17.577783 6.2056975 22.49759191 6 28 C4.35 28.66 2.7 29.32 1 30 C1.20625 28.783125 1.4125 27.56625 1.625 26.3125 C2.23085205 21.05071646 1.38741259 16.29538943 0.48046875 11.109375 C-0.10376234 7.32849738 -0.14960087 3.81482226 0 0 Z " fill="#E5E5E5" transform="translate(287,193)"/>
<path d="M0 0 C1.98 0 3.96 0 6 0 C6 0.66 6 1.32 6 2 C5.34 2 4.68 2 4 2 C4.33 5.3 4.66 8.6 5 12 C3.35 12 1.7 12 0 12 C0.66 10.35 1.32 8.7 2 7 C0.35 7 -1.3 7 -3 7 C-3 8.32 -3 9.64 -3 11 C-2.34 11.33 -1.68 11.66 -1 12 C-2.65 12 -4.3 12 -6 12 C-5.67 8.37 -5.34 4.74 -5 1 C-4.01 1 -3.02 1 -2 1 C-2 2.32 -2 3.64 -2 5 C-1.01 5 -0.02 5 1 5 C0.67 3.35 0.34 1.7 0 0 Z " fill="#C7C7C7" transform="translate(257,337)"/>
<path d="M0 0 C6.0546875 -0.1953125 6.0546875 -0.1953125 8 0 C8.66 0.66 9.32 1.32 10 2 C9.625 4.625 9.625 4.625 9 7 C7.35 7.33 5.7 7.66 4 8 C4 8.99 4 9.98 4 11 C4.66 11.33 5.32 11.66 6 12 C4.02 12 2.04 12 0 12 C0.66 8.7 1.32 5.4 2 2 C1.34 2 0.68 2 0 2 C0 1.34 0 0.68 0 0 Z " fill="#929292" transform="translate(312,337)"/>
<path d="M0 0 C6.0546875 -0.1953125 6.0546875 -0.1953125 8 0 C8.66 0.66 9.32 1.32 10 2 C9.625 4.625 9.625 4.625 9 7 C7.35 7.33 5.7 7.66 4 8 C4 8.99 4 9.98 4 11 C4.66 11.33 5.32 11.66 6 12 C4.02 12 2.04 12 0 12 C0.66 8.7 1.32 5.4 2 2 C1.34 2 0.68 2 0 2 C0 1.34 0 0.68 0 0 Z " fill="#929292" transform="translate(293,337)"/>
<path d="M0 0 C0 1.32 0 2.64 0 4 C-0.66 4 -1.32 4 -2 4 C-2 3.34 -2 2.68 -2 2 C-3.32 2.33 -4.64 2.66 -6 3 C-6.33 5.31 -6.66 7.62 -7 10 C-5.68 10 -4.36 10 -3 10 C-3.33 8.68 -3.66 7.36 -4 6 C-2.68 6 -1.36 6 0 6 C0 7.98 0 9.96 0 12 C-6.0546875 12.1953125 -6.0546875 12.1953125 -8 12 C-10 10 -10 10 -10.3125 6.5625 C-10 3 -10 3 -8.9375 1.0625 C-5.98831309 -0.55479605 -3.29132441 -0.18630138 0 0 Z " fill="#EFEFEF" transform="translate(378,337)"/>
<path d="M0 0 C1.32 0 2.64 0 4 0 C4.99 3.96 5.98 7.92 7 12 C5.35 12 3.7 12 2 12 C2.33 10.68 2.66 9.36 3 8 C-0.11785113 8.64644661 -0.11785113 8.64644661 -1 11 C-0.34 11.33 0.32 11.66 1 12 C-0.65 12 -2.3 12 -4 12 C-3.52309796 10.37433394 -3.04340334 8.74948689 -2.5625 7.125 C-2.29566406 6.22007812 -2.02882812 5.31515625 -1.75390625 4.3828125 C-1 2 -1 2 0 0 Z " fill="#EEEEEE" transform="translate(147,337)"/>
<path d="M0 0 C3.375 -0.125 3.375 -0.125 7 0 C7.66 0.66 8.32 1.32 9 2 C8.625 4.625 8.625 4.625 8 7 C6.35 7.33 4.7 7.66 3 8 C3 8.99 3 9.98 3 11 C3.66 11.33 4.32 11.66 5 12 C3.35 12 1.7 12 0 12 C0 8.04 0 4.08 0 0 Z " fill="#E8E8E8" transform="translate(183,337)"/>
<path d="M0 0 C3.375 -0.125 3.375 -0.125 7 0 C7.66 0.66 8.32 1.32 9 2 C8.625 4.625 8.625 4.625 8 7 C6.35 7.33 4.7 7.66 3 8 C3 8.99 3 9.98 3 11 C3.66 11.33 4.32 11.66 5 12 C3.35 12 1.7 12 0 12 C0 8.04 0 4.08 0 0 Z " fill="#E8E8E8" transform="translate(164,337)"/>
<path d="M0 0 C2.26118705 1.04983684 3.97525665 1.97696309 5.8125 3.6875 C8.07517815 5.30776155 8.07517815 5.30776155 11.5 4.9375 C15.22632646 3.93937684 16.61553955 2.95673096 19 0 C19.99 0.33 20.98 0.66 22 1 C16.69764481 7.96880968 16.69764481 7.96880968 12 9 C6.10653426 9 3.02162345 5.89074221 -1 2 C-0.67 1.34 -0.34 0.68 0 0 Z " fill="#E3E3E3" transform="translate(235,178)"/>
<path d="M0 0 C0.33 0 0.66 0 1 0 C1.33 2.64 1.66 5.28 2 8 C2.33 8 2.66 8 3 8 C2.67 17.24 2.34 26.48 2 36 C1.67 36 1.34 36 1 36 C0.67 33.36 0.34 30.72 0 28 C-0.33 28 -0.66 28 -1 28 C-0.67 18.76 -0.34 9.52 0 0 Z " fill="#D4D4D4" transform="translate(208,182)"/>
<path d="M0 0 C0 1.32 0 2.64 0 4 C-0.66 4 -1.32 4 -2 4 C-2 3.34 -2 2.68 -2 2 C-2.99 2 -3.98 2 -5 2 C-4.154375 2.721875 -3.30875 3.44375 -2.4375 4.1875 C0 7 0 7 -0.1875 9.8125 C-0.5896875 10.8953125 -0.5896875 10.8953125 -1 12 C-3.31 12 -5.62 12 -8 12 C-8 10.68 -8 9.36 -8 8 C-7.34 8 -6.68 8 -6 8 C-6 8.66 -6 9.32 -6 10 C-5.01 10 -4.02 10 -3 10 C-3.845625 9.2575 -4.69125 8.515 -5.5625 7.75 C-8 5 -8 5 -7.9375 2.75 C-6.11616522 -0.64982492 -3.4920724 -0.09189664 0 0 Z " fill="#E1E1E1" transform="translate(240,337)"/>
<path d="M0 0 C1.65 0 3.3 0 5 0 C5.33 1.32 5.66 2.64 6 4 C6 2.68 6 1.36 6 0 C7.65 0 9.3 0 11 0 C11 0.66 11 1.32 11 2 C10.34 2 9.68 2 9 2 C8.01 4.97 7.02 7.94 6 11 C6.66 11.33 7.32 11.66 8 12 C6.02 12 4.04 12 2 12 C2.226875 11.278125 2.45375 10.55625 2.6875 9.8125 C3.08604497 6.22559529 1.97699586 4.92595387 0 2 C0 1.34 0 0.68 0 0 Z " fill="#E3E3E3" transform="translate(201,337)"/>
<path d="M0 0 C0.66 0 1.32 0 2 0 C2.82351864 6.38226945 3.12086218 12.56744599 3 19 C2.01 19 1.02 19 0 19 C0 12.73 0 6.46 0 0 Z " fill="#E5E5E5" transform="translate(281,189)"/>
<path d="M0 0 C0.33 0 0.66 0 1 0 C2.26844651 3.63621333 3.45411618 7.17881323 4 11 C3 12 3 12 0.4375 12.0625 C-0.366875 12.041875 -1.17125 12.02125 -2 12 C-2.33 10.35 -2.66 8.7 -3 7 C-2.01 6.67 -1.02 6.34 0 6 C0 4.02 0 2.04 0 0 Z " fill="#F9F9F9" transform="translate(229,142)"/>
<path d="M0 0 C-0.99 0.33 -1.98 0.66 -3 1 C-4.37701298 2.28817344 -5.70644173 3.62804426 -7 5 C-9 7 -11 9 -13 11 C-13.66 11 -14.32 11 -15 11 C-13.36909756 5.81076495 -10.43866508 2.62577672 -5.9375 -0.375 C-3.58376417 -1.13426962 -2.29943113 -0.8212254 0 0 Z " fill="#DFDFDF" transform="translate(244,110)"/>
<path d="M0 0 C1.65 0 3.3 0 5 0 C5 3.96 5 7.92 5 12 C3.35 12 1.7 12 0 12 C0 8.04 0 4.08 0 0 Z " fill="#CECECE" transform="translate(331,337)"/>
<path d="M0 0 C3.875 0.875 3.875 0.875 5 2 C5.04063832 3.66617115 5.042721 5.33388095 5 7 C3.34385343 7.38218767 1.67542976 7.71395102 0 8 C-0.33 7.67 -0.66 7.34 -1 7 C-0.71269945 4.66055264 -0.38063221 2.3260857 0 0 Z " fill="#1B1B1B" transform="translate(276,339)"/>
<path d="M0 0 C0.33 0 0.66 0 1 0 C2.10228696 4.40914783 2.07654536 8.48382401 2 13 C0.35 13.66 -1.3 14.32 -3 15 C-2.85831863 13.56208484 -2.71148957 12.1246763 -2.5625 10.6875 C-2.48128906 9.88699219 -2.40007812 9.08648437 -2.31640625 8.26171875 C-1.91154529 5.36771262 -0.92292548 2.76877644 0 0 Z " fill="#CDCDCD" transform="translate(291,208)"/>
<path d="M0 0 C1.32 0 2.64 0 4 0 C3.67 3.96 3.34 7.92 3 12 C2.01 12 1.02 12 0 12 C-0.66 10.35 -1.32 8.7 -2 7 C-1.01 7 -0.02 7 1 7 C0.67 4.69 0.34 2.38 0 0 Z " fill="#E4E4E4" transform="translate(354,337)"/>
<path d="M0 0 C1.32 0 2.64 0 4 0 C4 0.66 4 1.32 4 2 C4.66 2.33 5.32 2.66 6 3 C5.01 3.66 4.02 4.32 3 5 C3 5.99 3 6.98 3 8 C1.68 8 0.36 8 -1 8 C-1.04241723 5.66705225 -1.04092937 3.33297433 -1 1 C-0.67 0.67 -0.34 0.34 0 0 Z " fill="#1A1A1A" transform="translate(372,339)"/>
<path d="M0 0 C1.32 0 2.64 0 4 0 C4.33 1.98 4.66 3.96 5 6 C2.69 6.33 0.38 6.66 -2 7 C-1.34 4.69 -0.68 2.38 0 0 Z " fill="#B2B2B2" transform="translate(147,337)"/>
<path d="M0 0 C1.98 0 3.96 0 6 0 C5.67 1.65 5.34 3.3 5 5 C3.35 5.33 1.7 5.66 0 6 C0 4.02 0 2.04 0 0 Z " fill="#919191" transform="translate(186,339)"/>
<path d="M0 0 C1.98 0 3.96 0 6 0 C5.67 1.65 5.34 3.3 5 5 C3.35 5.33 1.7 5.66 0 6 C0 4.02 0 2.04 0 0 Z " fill="#919191" transform="translate(167,339)"/>
<path d="M0 0 C1.65 0.33 3.3 0.66 5 1 C4.67 2.65 4.34 4.3 4 6 C2.35 5.67 0.7 5.34 -1 5 C-0.67 3.35 -0.34 1.7 0 0 Z " fill="#E9E9E9" transform="translate(244,317)"/>
<path d="M0 0 C1.65 0 3.3 0 5 0 C4.67 1.65 4.34 3.3 4 5 C5.32 5.33 6.64 5.66 8 6 C6.02 6 4.04 6 2 6 C1.67 7.32 1.34 8.64 1 10 C0.67 6.7 0.34 3.4 0 0 Z " fill="#CACACA" transform="translate(122,337)"/>
<path d="M0 0 C0.99 0 1.98 0 3 0 C3 1.98 3 3.96 3 6 C3.66 6.33 4.32 6.66 5 7 C4.34 7 3.68 7 3 7 C3 7.99 3 8.98 3 10 C3.66 10.33 4.32 10.66 5 11 C3.02 11 1.04 11 -1 11 C-0.67 10.34 -0.34 9.68 0 9 C0.06950541 7.45976004 0.08452357 5.91665012 0.0625 4.375 C0.05347656 3.55773437 0.04445313 2.74046875 0.03515625 1.8984375 C0.02355469 1.27195312 0.01195312 0.64546875 0 0 Z " fill="#F3F3F3" transform="translate(313,338)"/>
<path d="M0 0 C0.99 0 1.98 0 3 0 C3 1.98 3 3.96 3 6 C3.66 6.33 4.32 6.66 5 7 C4.34 7 3.68 7 3 7 C3 7.99 3 8.98 3 10 C3.66 10.33 4.32 10.66 5 11 C3.02 11 1.04 11 -1 11 C-0.67 10.34 -0.34 9.68 0 9 C0.06950541 7.45976004 0.08452357 5.91665012 0.0625 4.375 C0.05347656 3.55773437 0.04445313 2.74046875 0.03515625 1.8984375 C0.02355469 1.27195312 0.01195312 0.64546875 0 0 Z " fill="#F3F3F3" transform="translate(294,338)"/>
<path d="M0 0 C2.125 0.375 2.125 0.375 4 1 C3.01 1 2.02 1 1 1 C0.53477707 5.79308342 0.53477707 5.79308342 2.5 9.9375 C2.995 10.288125 3.49 10.63875 4 11 C-0.875 10.125 -0.875 10.125 -2 9 C-2.1875 5.5625 -2.1875 5.5625 -2 2 C-1.34 1.34 -0.68 0.68 0 0 Z " fill="#F6F6F6" transform="translate(275,338)"/>
<path d="M0 0 C0.99 0.33 1.98 0.66 3 1 C2.67 2.32 2.34 3.64 2 5 C2.66 5.33 3.32 5.66 4 6 C3.34 6 2.68 6 2 6 C2 7.32 2 8.64 2 10 C2.66 10.33 3.32 10.66 4 11 C2.35 11 0.7 11 -1 11 C-0.67 7.37 -0.34 3.74 0 0 Z " fill="#F9F9F9" transform="translate(252,338)"/>
<path d="M0 0 C1.670625 0.061875 1.670625 0.061875 3.375 0.125 C3.375 1.445 3.375 2.765 3.375 4.125 C2.715 4.125 2.055 4.125 1.375 4.125 C1.375 3.465 1.375 2.805 1.375 2.125 C0.055 2.455 -1.265 2.785 -2.625 3.125 C-2.955 4.775 -3.285 6.425 -3.625 8.125 C-3.955 8.125 -4.285 8.125 -4.625 8.125 C-5.25 5.25 -5.25 5.25 -5.625 2.125 C-3.625 0.125 -3.625 0.125 0 0 Z " fill="#C5C5C5" transform="translate(374.625,336.875)"/>
<path d="M0 0 C1.32 0 2.64 0 4 0 C4 1.98 4 3.96 4 6 C1.03 5.505 1.03 5.505 -2 5 C-1.01 4.67 -0.02 4.34 1 4 C0.67 2.68 0.34 1.36 0 0 Z " fill="#C3C3C3" transform="translate(374,343)"/>
<path d="M0 0 C0.66 0 1.32 0 2 0 C2 0.66 2 1.32 2 2 C2.99 2 3.98 2 5 2 C5.33 1.34 5.66 0.68 6 0 C6.33 1.32 6.66 2.64 7 4 C4.69 4 2.38 4 0 4 C0 2.68 0 1.36 0 0 Z " fill="#C0C0C0" transform="translate(232,345)"/>
<path d="M0 0 C1.65 0 3.3 0 5 0 C4.67 1.32 4.34 2.64 4 4 C2.68 4 1.36 4 0 4 C0 2.68 0 1.36 0 0 Z " fill="#202020" transform="translate(254,344)"/>
<path d="M0 0 C1.32 0 2.64 0 4 0 C3.67 1.65 3.34 3.3 3 5 C2.01 4.67 1.02 4.34 0 4 C0 2.68 0 1.36 0 0 Z " fill="#121212" transform="translate(126,344)"/>
<path d="M0 0 C1.65 0 3.3 0 5 0 C5 0.66 5 1.32 5 2 C4.34 2 3.68 2 3 2 C2.34 3.32 1.68 4.64 1 6 C0.4465236 3.92446352 0 2.15634036 0 0 Z " fill="#BABABA" transform="translate(207,337)"/>
<path d="M0 0 C0.99 0.33 1.98 0.66 3 1 C3 1.99 3 2.98 3 4 C1.35 4.66 -0.3 5.32 -2 6 C-1.34 4.02 -0.68 2.04 0 0 Z " fill="#E4E4E4" transform="translate(290,217)"/>
</svg>
