<svg xmlns="http://www.w3.org/2000/svg" xmlns:xlink="http://www.w3.org/1999/xlink" id="cards" enable-background="new 0 0 128 128" version="1.1" viewBox="0 0 128 128" xml:space="preserve"><path fill="#589fff" d="M88.4,16H13.6C11.1,16,9,18.1,9,20.6v48.8c0,2.6,2.1,4.6,4.6,4.6h74.8c2.6,0,4.6-2.1,4.6-4.6V20.6  C93,18.1,90.9,16,88.4,16z"></path><rect width="69" height="15" x="16" y="40" fill="#caeafb"></rect><rect width="84" height="15" x="9" y="28" fill="#5e61a3"></rect><path fill="none" stroke="#242c88" stroke-linecap="round" stroke-linejoin="round" stroke-miterlimit="10" stroke-width="2" d="M88.4,16H13.6C11.1,16,9,18.1,9,20.6v48.8c0,2.6,2.1,4.6,4.6,4.6h74.8c2.6,0,4.6-2.1,4.6-4.6V20.6  C93,18.1,90.9,16,88.4,16z"></path><line x1="17" x2="41" y1="61" y2="61" fill="none" stroke="#242c88" stroke-linecap="round" stroke-linejoin="round" stroke-miterlimit="10" stroke-width="2" opacity=".5"></line><line x1="17" x2="41" y1="65" y2="65" fill="none" stroke="#242c88" stroke-linecap="round" stroke-linejoin="round" stroke-miterlimit="10" stroke-width="2" opacity=".5"></line><path fill="#242c88" d="M40.6,50c-5.3,0-9.6,4.3-9.6,9.6V74h57.4c2.6,0,4.6-2.1,4.6-4.6V50H40.6z" opacity=".3"></path><path fill="#ff5751" d="M115.4,55H40.6c-2.6,0-4.6,2.1-4.6,4.6v48.8c0,2.6,2.1,4.6,4.6,4.6h74.8c2.6,0,4.6-2.1,4.6-4.6V59.6  C120,57.1,117.9,55,115.4,55z"></path><path fill="#f3877e" d="M111.7,84c2.9,0,5.7-0.4,8.3-1.2V69.3c-2.4,1.4-5.3,2.2-8.3,2.2c-9.2,0-16.6-7.4-16.6-16.6H82.7  C82.7,71,95.7,84,111.7,84z"></path><path fill="none" stroke="#242c88" stroke-linecap="round" stroke-linejoin="round" stroke-miterlimit="10" stroke-width="2" d="M115.4,55H40.6c-2.6,0-4.6,2.1-4.6,4.6v48.8c0,2.6,2.1,4.6,4.6,4.6h74.8c2.6,0,4.6-2.1,4.6-4.6V59.6  C120,57.1,117.9,55,115.4,55z"></path><path fill="#ffc408" d="M55.6,90H45.4c-1.3,0-2.4-1.1-2.4-2.4v-7.3c0-1.3,1.1-2.4,2.4-2.4h10.3c1.3,0,2.4,1.1,2.4,2.4v7.3  C58,88.9,56.9,90,55.6,90z"></path><path fill="none" stroke="#242c88" stroke-linecap="round" stroke-linejoin="round" stroke-miterlimit="10" stroke-width="2" d="M55.6,90H45.4c-1.3,0-2.4-1.1-2.4-2.4v-7.3c0-1.3,1.1-2.4,2.4-2.4h10.3c1.3,0,2.4,1.1,2.4,2.4v7.3  C58,88.9,56.9,90,55.6,90z"></path><line x1="44" x2="57" y1="95" y2="95" fill="none" stroke="#242c88" stroke-linecap="round" stroke-linejoin="round" stroke-miterlimit="10" stroke-width="2"></line><line x1="44" x2="64" y1="99" y2="99" fill="none" stroke="#fff" stroke-linecap="round" stroke-linejoin="round" stroke-miterlimit="10" stroke-width="2"></line><line x1="44" x2="53" y1="104" y2="104" fill="none" stroke="#fff" stroke-linecap="round" stroke-linejoin="round" stroke-miterlimit="10" stroke-width="2"></line><line x1="69" x2="76" y1="99" y2="99" fill="none" stroke="#fff" stroke-linecap="round" stroke-linejoin="round" stroke-miterlimit="10" stroke-width="2"></line><line x1="61" x2="75" y1="95" y2="95" fill="none" stroke="#242c88" stroke-linecap="round" stroke-linejoin="round" stroke-miterlimit="10" stroke-width="2"></line><line x1="80" x2="92" y1="95" y2="95" fill="none" stroke="#242c88" stroke-linecap="round" stroke-linejoin="round" stroke-miterlimit="10" stroke-width="2"></line><line x1="97" x2="111" y1="95" y2="95" fill="none" stroke="#242c88" stroke-linecap="round" stroke-linejoin="round" stroke-miterlimit="10" stroke-width="2"></line><g opacity=".2"><defs><path id="SVGID_5_" d="M55.6,90H45.4c-1.3,0-2.4-1.1-2.4-2.4v-7.3c0-1.3,1.1-2.4,2.4-2.4h10.3c1.3,0,2.4,1.1,2.4,2.4    v7.3C58,88.9,56.9,90,55.6,90z" opacity=".2"></path></defs><clipPath id="SVGID_2_"><use overflow="visible" xlink:href="#SVGID_5_"></use></clipPath><rect width="5" height="14" x="48" y="77" fill="none" stroke="#242c88" stroke-linecap="round" stroke-linejoin="round" stroke-miterlimit="10" stroke-width="2" clip-path="url(#SVGID_2_)"></rect><line x1="53" x2="58" y1="84" y2="84" fill="none" stroke="#242c88" stroke-linecap="round" stroke-linejoin="round" stroke-miterlimit="10" stroke-width="2" clip-path="url(#SVGID_2_)"></line><line x1="43" x2="48" y1="84" y2="84" fill="none" stroke="#242c88" stroke-linecap="round" stroke-linejoin="round" stroke-miterlimit="10" stroke-width="2" clip-path="url(#SVGID_2_)"></line></g><circle cx="106" cy="70" r="5" fill="#fff"></circle><circle cx="99" cy="70" r="5" fill="#ffc408"></circle><path fill="#242c88" d="M101,70c0,1.4,0.6,2.7,1.5,3.6c0.9-0.9,1.5-2.2,1.5-3.6s-0.6-2.7-1.5-3.6C101.6,67.3,101,68.6,101,70z" opacity=".2"></path><path fill="none" stroke="#242c88" stroke-linecap="round" stroke-linejoin="round" stroke-miterlimit="10" stroke-width="2" d="M106,65c-1.4,0-2.6,0.5-3.5,1.4c-0.9-0.9-2.1-1.4-3.5-1.4c-2.8,0-5,2.2-5,5s2.2,5,5,5c1.4,0,2.6-0.5,3.5-1.4  c0.9,0.9,2.1,1.4,3.5,1.4c2.8,0,5-2.2,5-5S108.8,65,106,65z"></path></svg>