<svg xmlns="http://www.w3.org/2000/svg" width="25.599" height="25.599" fill-rule="evenodd" clip-rule="evenodd" image-rendering="optimizeQuality" shape-rendering="geometricPrecision" text-rendering="geometricPrecision" viewBox="0 0 677.32 677.32" id="card"><rect width="677.33" height="677.33" x="-.01" y="-.01" fill="none"></rect><rect width="609.62" height="422.87" x="33.85" y="127.22" rx="41.32" ry="41.32"></rect><rect width="122.89" height="103.04" x="80.53" y="286.07" fill="#fc0" rx="28.44" ry="28.44"></rect><circle cx="546.58" cy="226.31" r="50.64" fill="#0052d6"></circle><path fill="#ccc" fill-rule="nonzero" d="M87.78 422.71c-3.74 0-6.78-3.03-6.78-6.78 0-3.74 3.04-6.77 6.78-6.77l103.03 0c3.74 0 6.78 3.03 6.78 6.77 0 3.75-3.04 6.78-6.78 6.78l-103.03 0zM209.6 422.71c-3.75 0-6.78-3.03-6.78-6.78 0-3.74 3.03-6.77 6.78-6.77l111.62 0c3.74 0 6.77 3.03 6.77 6.77 0 3.75-3.03 6.78-6.77 6.78l-111.62 0zM345.64 422.71c-3.75 0-6.78-3.03-6.78-6.78 0-3.74 3.03-6.77 6.78-6.77l97.13 0c3.74 0 6.77 3.03 6.77 6.77 0 3.75-3.03 6.78-6.77 6.78l-97.13 0zM467.45 422.71c-3.74 0-6.77-3.03-6.77-6.78 0-3.74 3.03-6.77 6.77-6.77l112.7 0c3.74 0 6.77 3.03 6.77 6.77 0 3.75-3.03 6.78-6.77 6.78l-112.7 0zM87.78 452.76c-3.74 0-6.78-3.03-6.78-6.77 0-3.74 3.04-6.78 6.78-6.78l155.76 0c3.74 0 6.77 3.04 6.77 6.78 0 3.74-3.03 6.77-6.77 6.77l-155.76 0zM87.78 487.64c-3.74 0-6.78-3.03-6.78-6.77 0-3.74 3.04-6.78 6.78-6.78l76.07 0c3.74 0 6.77 3.04 6.77 6.78 0 3.74-3.03 6.77-6.77 6.77l-76.07 0zM264.8 452.76c-3.74 0-6.77-3.03-6.77-6.77 0-3.74 3.03-6.78 6.77-6.78l64.54 0c3.74 0 6.77 3.04 6.77 6.78 0 3.74-3.03 6.77-6.77 6.77l-64.54 0z"></path><circle cx="479.02" cy="226.31" r="50.64" fill="red"></circle></svg>