<svg xmlns="http://www.w3.org/2000/svg" enable-background="new 0 0 60 60" viewBox="0 0 60 60" id="net-banking"><path d="M52,15c0-1.6542969-1.3457031-3-3-3H11c-1.6542969,0-3,1.3457031-3,3v25H6v5.4140625L8.5859375,48h42.828125L54,45.4140625
		V40h-2V15z M10,15c0-0.5517578,0.4487305-1,1-1h38c0.5517578,0,1,0.4482422,1,1v25H10V15z M52,44.5859375L50.5859375,46H9.4140625
		L8,44.5859375V42h44V44.5859375z"></path><rect width="8" height="2" x="26" y="43"></rect><path d="M30,22c1.1025391,0,2,0.8974609,2,2h2c0-1.8587036-1.27948-3.4109497-3-3.8580322V19h-2v1.1420288
		C27.2797241,20.5891724,26,22.1412964,26,24c0,2.2060547,1.7944336,4,4,4c1.1025391,0,2,0.8974609,2,2s-0.8974609,2-2,2
		c-1.1030273,0-2-0.8974609-2-2h-2c0,1.8587036,1.2797241,3.4108276,3,3.8579712V35h2v-1.1419678
		C32.72052,33.4109497,34,31.8587036,34,30c0-2.2060547-1.7939453-4-4-4c-1.1030273,0-2-0.8974609-2-2S28.8969727,22,30,22z"></path></svg>